<?xml version="1.0" standalone="no"?>
<!DOCTYPE svg PUBLIC "-//W3C//DTD SVG 20010904//EN"
 "http://www.w3.org/TR/2001/REC-SVG-20010904/DTD/svg10.dtd">
<svg version="1.0" xmlns="http://www.w3.org/2000/svg"
 width="700.000000pt" height="700.000000pt" viewBox="0 0 700.000000 700.000000"
 preserveAspectRatio="xMidYMid meet">
<metadata>
Created by potrace 1.14, written by Peter Selinger 2001-2017
</metadata>
<g transform="translate(0.000000,700.000000) scale(0.100000,-0.100000)"
fill="#000000" stroke="none">
<path d="M1313 5469 l0 -219 1638 0 c1304 0 1639 -3 1640 -12 4 -55 3 -2698
-1 -2715 -3 -11 -32 -41 -65 -65 -83 -62 -133 -112 -194 -191 -47 -63 -118
-198 -127 -240 -2 -10 -6 -27 -9 -38 -6 -18 -25 -19 -694 -19 l-688 0 -12 42
c-46 153 -158 316 -288 419 -477 380 -1180 173 -1378 -406 -9 -27 -19 -61 -22
-75 -2 -14 -8 -41 -12 -60 -13 -58 -11 -220 4 -295 80 -418 435 -717 850 -718
242 -1 451 84 624 252 98 95 185 237 222 361 l12 40 686 0 686 0 24 -68 c51
-143 136 -270 250 -371 38 -34 72 -61 76 -61 3 0 25 -13 48 -28 23 -16 70 -40
105 -55 435 -185 924 1 1128 429 24 50 47 105 50 122 l6 31 267 3 c294 3 305
5 364 71 62 69 59 27 60 902 0 441 -3 813 -7 828 -3 15 -17 51 -30 80 -13 28
-70 160 -126 292 -56 132 -108 254 -115 270 -8 17 -64 147 -125 290 -61 143
-117 274 -124 290 -8 17 -44 102 -82 190 -88 208 -101 228 -179 265 -37 18
-65 20 -392 20 l-353 0 0 240 c0 280 2 246 -21 292 -28 56 -63 88 -116 108
-46 17 -132 18 -1814 18 l-1766 -1 0 -218z m4231 -880 c2 -2 36 -80 76 -174
39 -93 78 -184 85 -201 12 -26 287 -666 302 -701 4 -10 -97 -13 -486 -13
l-491 0 0 543 c0 299 2 546 4 548 6 5 504 4 510 -2z m571 -1528 c7 -1 10 -188
10 -543 l0 -543 -126 -3 -126 -3 -11 43 c-17 65 -84 196 -135 263 -154 204
-382 326 -652 350 -16 2 -33 3 -37 4 -5 0 -8 97 -8 215 l0 215 28 3 c22 2
1022 1 1057 -1z m-3998 -901 c177 -62 296 -242 287 -434 -7 -146 -102 -294
-234 -364 -128 -68 -296 -62 -425 13 -161 95 -246 297 -201 475 46 180 175
298 366 333 44 8 153 -4 207 -23z m3045 6 c188 -57 321 -254 303 -450 -25
-286 -310 -472 -578 -378 -265 94 -374 409 -222 647 104 164 309 239 497 181z"/>
<path d="M442 4593 c-8 -3 -8 -415 0 -429 5 -7 2068 -12 2168 -5 14 1 15 29
14 214 -1 116 -2 214 -3 217 -1 5 -2164 7 -2179 3z"/>
<path d="M875 3285 c0 -184 2 -216 15 -219 8 -2 599 -4 1313 -4 l1297 0 0 219
0 219 -1312 0 -1313 0 0 -215z"/>
</g>
</svg>
